<svg width="32" height="30" viewBox="0 0 32 30" fill="none" xmlns="http://www.w3.org/2000/svg">
<path d="M26.7392 30H18.913C18.5525 30 18.2609 29.7083 18.2609 29.3478V20.8696H13.0435V29.3478C13.0435 29.7083 12.7518 30 12.3913 30H4.56521C4.20471 30 3.91302 29.7083 3.91302 29.3478V16.3044C3.91302 15.9439 4.20471 15.6522 4.56521 15.6522C4.92571 15.6522 5.2174 15.9439 5.2174 16.3044V28.6957H11.7392V20.2174C11.7392 19.8569 12.0308 19.5652 12.3913 19.5652H18.9131C19.2736 19.5652 19.5653 19.8569 19.5653 20.2174V28.6957H26.087V16.9565C26.087 16.596 26.3787 16.3044 26.7392 16.3044C27.0997 16.3044 27.3914 16.596 27.3914 16.9565V29.3479C27.3913 29.7083 27.0996 30 26.7392 30ZM30.6522 16.3044C30.4854 16.3044 30.3185 16.2407 30.1911 16.1133L15.6522 1.57442L1.11328 16.1133C0.858526 16.3681 0.44582 16.3681 0.191066 16.1133C-0.0636886 15.8585 -0.0636886 15.4458 0.191066 15.1911L15.1911 0.191066C15.4458 -0.0636886 15.8585 -0.0636886 16.1133 0.191066L31.1133 15.1911C31.3681 15.4458 31.3681 15.8585 31.1133 16.1133C30.9859 16.2407 30.8191 16.3044 30.6522 16.3044ZM25.4348 7.1739C25.0743 7.1739 24.7826 6.88222 24.7826 6.52172V2.60871H20.8696C20.5091 2.60871 20.2174 2.31702 20.2174 1.95652C20.2174 1.59602 20.5091 1.30433 20.8696 1.30433H25.4348C25.7953 1.30433 26.087 1.59602 26.087 1.95652V6.52172C26.087 6.88222 25.7953 7.1739 25.4348 7.1739Z" fill="#178CBE"/>
</svg>
