<svg preserveAspectRatio="none" overflow="visible" style="display: block;" width="190" height="99" viewBox="0 0 190 99" fill="none" xmlns="http://www.w3.org/2000/svg">
<g id="909129712">
<path id="Vector" fill-rule="evenodd" clip-rule="evenodd" d="M44.4585 30.5426L62.7206 41.2061L68.5656 37.7964L67.4151 37.1118V29.1866L75.2701 33.8864L88.917 25.9348L44.4585 0V30.5426ZM65.9473 36.4799L57.9865 31.7142V23.789L65.9473 28.5547V36.4799ZM67.4151 19.5894L75.3758 24.3551V32.2803L67.4151 27.5146V19.5894ZM65.9473 26.8827L57.9865 22.117V14.1918L65.9473 18.9706V26.8827Z" fill="white"/>
<g id="Group">
<path id="Vector_2" fill-rule="evenodd" clip-rule="evenodd" d="M21.502 29.1866L13.5544 33.9523V41.8775L21.502 37.1119V29.1866Z" fill="#24A9E2"/>
<path id="Vector_3" fill-rule="evenodd" clip-rule="evenodd" d="M22.983 36.4799L30.9305 31.7142V23.789L22.983 28.5547V36.4799Z" fill="#24A9E2"/>
<path id="Vector_4" fill-rule="evenodd" clip-rule="evenodd" d="M21.502 19.5894L13.5544 24.3551V32.2803L21.502 27.5146V19.5894Z" fill="#24A9E2"/>
<path id="Vector_5" fill-rule="evenodd" clip-rule="evenodd" d="M22.983 26.8827L30.9305 22.117V14.1918L22.983 18.9574V26.8827Z" fill="#24A9E2"/>
</g>
<path id="Vector_6" fill-rule="evenodd" clip-rule="evenodd" d="M0 56.4774V25.9348L44.4585 51.8565V82.4122L25.5352 71.38V47.986L13.5544 41.0876V64.3763L0 56.4774Z" fill="#24A9E2"/>
<path id="Vector_7" d="M71.9112 69.2605L70.126 72.2621V82.4912H66.7142V52.0145H70.126V66.7328L78.2586 52.0145H81.71L73.9741 65.9034L81.9745 82.4912H78.4834L71.9112 69.2605ZM91.4692 52.0145C93.8627 52.0145 95.5686 52.5674 96.5869 53.6864C97.6051 54.8054 98.1076 56.5037 98.1076 58.768V60.203C98.1076 61.8223 97.8563 63.1388 97.3274 64.1393C96.7984 65.1399 95.8728 65.8376 94.5239 66.2457C96.0182 66.6538 97.0761 67.4305 97.6977 68.5627C98.3192 69.6949 98.6365 71.1036 98.6365 72.7755V75.3558C98.6365 77.6465 98.0679 79.4106 96.9307 80.6349C95.7934 81.8724 94.0347 82.4912 91.6411 82.4912H84.6061V52.0145H91.4692ZM90.6361 64.9424C92.0114 64.9424 93.0296 64.6659 93.7173 64.113C94.4049 63.5601 94.7487 62.4937 94.7487 60.9008V59.1103C94.7487 57.7412 94.4843 56.7407 93.9818 56.0824C93.466 55.4373 92.6065 55.1082 91.3767 55.1082H88.0046V64.9424H90.6361ZM91.6411 79.3974C94.0611 79.3974 95.2645 78.0151 95.2645 75.2637V72.5649C95.2645 70.8534 94.9339 69.6686 94.2462 69.0103C93.5586 68.3653 92.4742 68.0361 90.9799 68.0361H88.0046V79.3974H91.6411ZM105.196 76.3563L104.019 82.4912H100.871L106.73 52.0145H111.675L117.533 82.4912H114.122L112.945 76.3563H105.196ZM105.632 73.4337H112.455L109.004 55.8454L105.632 73.4337ZM135.28 86.6645V82.4912H122.783V86.6645H119.504V79.4896H121.461C121.99 78.9103 122.334 78.2521 122.492 77.528C122.651 76.804 122.77 75.9746 122.823 75.0399L124 52.0145H136.285V79.4896H138.612V86.6645H135.28ZM126.142 75.0004C126.089 76.1062 125.957 77.0014 125.772 77.6992C125.587 78.3969 125.243 78.9893 124.74 79.4896H132.833V55.1082H127.147L126.142 75.0004ZM148.279 52.0145C150.699 52.0145 152.444 52.6727 153.515 53.9892C154.6 55.3188 155.142 57.1356 155.142 59.4526V63.1125C155.142 65.548 154.56 67.3911 153.41 68.6286C152.259 69.8529 150.461 70.4716 148.014 70.4716H144.999V82.4912H141.588V52.0145H148.279ZM148.014 67.4305C149.297 67.4305 150.236 67.1146 150.857 66.4958C151.466 65.8639 151.77 64.8107 151.77 63.3363V59.2815C151.77 57.886 151.505 56.846 150.963 56.1482C150.421 55.4505 149.522 55.1082 148.279 55.1082H144.999V67.4305H148.014ZM161.265 76.3563L160.088 82.4912H156.927L162.799 52.0145H167.731L173.589 82.4912H170.177L169.001 76.3563H161.265ZM161.701 73.4337H168.524L165.073 55.8454L161.701 73.4337ZM180.942 82.4912V55.1082H175.295V52.0145H190V55.1082H184.353V82.4912H180.942Z" fill="white"/>
<path id="Vector_8" d="M72.0567 97.5255C71.9376 97.2096 71.8318 96.92 71.7261 96.6172C71.6335 96.3275 71.5277 96.0247 71.4087 95.722H68.1953L67.5605 97.5255H66.5291C66.7936 96.7751 67.0448 96.0774 67.2961 95.4455C67.5341 94.8136 67.7589 94.208 67.9969 93.6419C68.2217 93.0626 68.4465 92.5229 68.6714 92.0095C68.8962 91.4829 69.1342 90.9694 69.3722 90.456H70.2847C70.5359 90.9694 70.7739 91.4829 70.9987 92.0095C71.2236 92.5229 71.4484 93.0626 71.6732 93.6419C71.898 94.208 72.136 94.8136 72.374 95.4455C72.6121 96.0774 72.8633 96.7751 73.141 97.5255H72.0567ZM71.131 94.9057C70.9062 94.3133 70.6946 93.7341 70.483 93.1811C70.2582 92.6282 70.0334 92.1016 69.8086 91.5882C69.5706 92.1016 69.3458 92.6282 69.121 93.1811C68.9094 93.7341 68.6978 94.3133 68.4862 94.9057H71.131ZM77.333 93.0231H74.9923V97.5255H74.0402V92.2201H77.333V93.0231ZM78.0206 94.8794C78.0206 94.4186 78.0867 94.0105 78.2322 93.6551C78.3644 93.2996 78.5496 93.01 78.7744 92.7862C78.9992 92.5492 79.2504 92.3781 79.5413 92.2596C79.8455 92.1543 80.1364 92.0884 80.4406 92.0884C81.1679 92.0884 81.71 92.3122 82.0935 92.7599C82.477 93.2075 82.6622 93.8789 82.6622 94.7872C82.6622 94.8267 82.6622 94.8794 82.6622 94.9452C82.6622 95.011 82.6622 95.0769 82.6622 95.1295H79.0124C79.0521 95.6825 79.2107 96.0906 79.4884 96.3802C79.7794 96.6698 80.2158 96.8015 80.7976 96.8015C81.1414 96.8015 81.4191 96.7751 81.6439 96.7225C81.882 96.6567 82.0539 96.604 82.1597 96.5513L82.2919 97.3412C82.1861 97.4071 81.9745 97.4729 81.6836 97.5387C81.3927 97.6045 81.0753 97.644 80.705 97.644C80.2422 97.644 79.8323 97.5782 79.5017 97.4334C79.1579 97.2886 78.8801 97.1043 78.6686 96.8541C78.4438 96.6172 78.2851 96.3275 78.1793 95.9852C78.0735 95.6561 78.0206 95.2875 78.0206 94.8794ZM81.6704 94.366C81.6836 93.9315 81.5778 93.5892 81.353 93.3128C81.1282 93.0363 80.8241 92.8915 80.4406 92.8915C80.2158 92.8915 80.0306 92.9442 79.8587 93.0231C79.6868 93.1021 79.5546 93.2206 79.4356 93.3523C79.3165 93.4839 79.224 93.6419 79.1579 93.8262C79.0917 93.9974 79.0521 94.1817 79.0388 94.366H81.6704ZM88.4013 97.5255H87.4492V95.1822H84.9896V97.5255H84.0374V92.2201H84.9896V94.3791H87.4492V92.2201H88.4013V97.5255ZM93.7834 92.2201V93.0231H92.0511V97.5255H91.1122V93.0231H89.3799V92.2201H93.7834ZM97.0761 97.644C96.653 97.644 96.2695 97.5782 95.9521 97.4334C95.6215 97.3017 95.357 97.1174 95.1322 96.8673C94.9074 96.6172 94.7487 96.3275 94.6297 95.9984C94.5239 95.6561 94.471 95.2875 94.471 94.8794C94.471 94.4713 94.5372 94.1027 94.6562 93.7604C94.7752 93.4181 94.9339 93.1285 95.1587 92.8783C95.3703 92.6282 95.648 92.4439 95.9653 92.2991C96.2827 92.1674 96.6265 92.0884 97.0232 92.0884C97.2613 92.0884 97.4993 92.1148 97.7373 92.1543C97.9754 92.1938 98.2002 92.2596 98.425 92.3517L98.2002 93.1548C98.0679 93.089 97.896 93.0231 97.7109 92.9837C97.5258 92.9442 97.3274 92.931 97.1158 92.931C96.5736 92.931 96.1769 93.089 95.886 93.4313C95.6083 93.7604 95.4628 94.2475 95.4628 94.8794C95.4628 95.169 95.5025 95.4323 95.5554 95.6693C95.6215 95.9063 95.7273 96.1037 95.8728 96.2749C96.005 96.446 96.1901 96.5777 96.4017 96.6698C96.6265 96.762 96.891 96.8015 97.2084 96.8015C97.4596 96.8015 97.6844 96.7883 97.8828 96.7356C98.0944 96.683 98.2531 96.6435 98.3721 96.5777L98.5043 97.3807C98.4514 97.4071 98.3721 97.4466 98.2663 97.4729C98.1605 97.4992 98.0547 97.5255 97.9225 97.5519C97.7902 97.5782 97.658 97.6045 97.4993 97.6177C97.3538 97.6309 97.2216 97.644 97.0761 97.644ZM103.437 92.2201V93.0231H101.704V97.5255H100.752V93.0231H99.02V92.2201H103.437ZM105.341 96.8015C105.394 96.8146 105.447 96.8146 105.526 96.8278C105.592 96.8278 105.685 96.841 105.777 96.841C105.87 96.841 105.976 96.8541 106.082 96.8541C106.187 96.8541 106.28 96.8541 106.386 96.8541C106.584 96.8541 106.769 96.841 106.954 96.8146C107.126 96.7883 107.285 96.7356 107.417 96.6698C107.549 96.604 107.655 96.5118 107.735 96.4065C107.814 96.288 107.854 96.1432 107.854 95.9721C107.854 95.8009 107.814 95.6561 107.748 95.5508C107.668 95.4323 107.576 95.3533 107.457 95.2743C107.338 95.2085 107.192 95.169 107.02 95.1427C106.849 95.1032 106.677 95.09 106.478 95.09H105.341V96.8015ZM106.359 94.3923C106.544 94.3923 106.716 94.3791 106.862 94.3528C107.02 94.3396 107.153 94.287 107.258 94.2343C107.378 94.1685 107.47 94.0895 107.536 93.9842C107.589 93.8789 107.629 93.7604 107.629 93.6024C107.629 93.4313 107.589 93.3128 107.51 93.2075C107.417 93.1153 107.311 93.0495 107.179 92.9968C107.047 92.9442 106.901 92.9047 106.73 92.8915C106.571 92.8783 106.399 92.8652 106.227 92.8652C106.068 92.8652 105.91 92.8652 105.751 92.8783C105.592 92.8783 105.46 92.8915 105.341 92.8915V94.3923H106.359ZM106.333 97.6177C105.936 97.6177 105.566 97.5914 105.222 97.5519C104.878 97.5124 104.614 97.4729 104.415 97.4334V92.2727C104.614 92.2333 104.878 92.1806 105.222 92.1411C105.566 92.1148 105.936 92.0884 106.333 92.0884C106.624 92.0884 106.888 92.1148 107.153 92.1674C107.417 92.2069 107.655 92.2859 107.867 92.4044C108.065 92.5097 108.237 92.6677 108.356 92.8652C108.488 93.0495 108.554 93.2864 108.554 93.5761C108.554 93.8394 108.488 94.0632 108.356 94.2343C108.224 94.4186 108.052 94.5634 107.827 94.6688C108.131 94.7741 108.356 94.9189 108.528 95.1164C108.713 95.327 108.792 95.6035 108.792 95.9589C108.792 96.2749 108.726 96.5513 108.607 96.762C108.475 96.9726 108.303 97.1306 108.078 97.2622C107.867 97.3939 107.602 97.486 107.298 97.5387C106.994 97.5914 106.677 97.6177 106.333 97.6177ZM114.717 94.8662C114.717 95.2875 114.651 95.6693 114.532 96.0116C114.413 96.3539 114.241 96.6435 114.016 96.8936C113.791 97.1306 113.527 97.3149 113.222 97.4597C112.918 97.5914 112.588 97.6572 112.217 97.6572C111.86 97.6572 111.53 97.5914 111.212 97.4597C110.908 97.3149 110.644 97.1306 110.432 96.8936C110.207 96.6435 110.035 96.3539 109.903 96.0116C109.784 95.6693 109.731 95.2875 109.731 94.8662C109.731 94.4581 109.784 94.0763 109.903 93.7341C110.035 93.3918 110.207 93.1021 110.432 92.852C110.644 92.615 110.908 92.4176 111.212 92.2859C111.53 92.1543 111.86 92.0884 112.217 92.0884C112.588 92.0884 112.918 92.1543 113.222 92.2859C113.527 92.4176 113.791 92.615 114.016 92.852C114.241 93.1021 114.413 93.3918 114.532 93.7341C114.651 94.0763 114.717 94.4581 114.717 94.8662ZM113.725 94.8662C113.725 94.2738 113.593 93.7999 113.315 93.4576C113.051 93.1021 112.68 92.931 112.217 92.931C111.755 92.931 111.398 93.1021 111.12 93.4576C110.855 93.7999 110.723 94.2738 110.723 94.8662C110.723 95.4718 110.855 95.9458 111.12 96.288C111.398 96.6435 111.755 96.8146 112.217 96.8146C112.68 96.8146 113.051 96.6435 113.315 96.288C113.593 95.9458 113.725 95.4718 113.725 94.8662ZM122.783 97.5255H121.831V95.1822H119.372V97.5255H118.419V92.2201H119.372V94.3791H121.831V92.2201H122.783V97.5255ZM124.119 94.8794C124.119 94.4186 124.185 94.0105 124.33 93.6551C124.463 93.2996 124.635 93.01 124.859 92.7862C125.097 92.5492 125.349 92.3781 125.64 92.2596C125.931 92.1543 126.235 92.0884 126.539 92.0884C127.266 92.0884 127.808 92.3122 128.192 92.7599C128.575 93.2075 128.76 93.8789 128.76 94.7872C128.76 94.8267 128.76 94.8794 128.76 94.9452C128.76 95.011 128.76 95.0769 128.747 95.1295H125.111C125.15 95.6825 125.309 96.0906 125.587 96.3802C125.878 96.6698 126.314 96.8015 126.896 96.8015C127.24 96.8015 127.517 96.7751 127.742 96.7225C127.98 96.6567 128.152 96.604 128.258 96.5513L128.39 97.3412C128.284 97.4071 128.073 97.4729 127.782 97.5387C127.491 97.6045 127.174 97.644 126.803 97.644C126.34 97.644 125.931 97.5782 125.6 97.4334C125.256 97.2886 124.978 97.1043 124.767 96.8541C124.542 96.6172 124.383 96.3275 124.278 95.9852C124.172 95.6561 124.119 95.2875 124.119 94.8794ZM127.769 94.366C127.782 93.9315 127.676 93.5892 127.451 93.3128C127.226 93.0363 126.922 92.8915 126.539 92.8915C126.314 92.8915 126.129 92.9442 125.957 93.0231C125.785 93.1021 125.653 93.2206 125.534 93.3523C125.415 93.4839 125.322 93.6419 125.256 93.8262C125.19 93.9974 125.15 94.1817 125.137 94.366H127.769ZM129.475 96.7488H130.056C130.281 96.4197 130.453 96.0774 130.585 95.7351C130.718 95.3928 130.823 95.0374 130.889 94.6688C130.956 94.287 131.008 93.9052 131.022 93.4971C131.048 93.1021 131.061 92.6677 131.061 92.2201H134.552V96.7488H135.267V99H134.367V97.5255H130.374V99H129.475V96.7488ZM133.6 96.7488V93.0231H131.934C131.934 93.3391 131.908 93.6551 131.881 93.9842C131.855 94.3001 131.815 94.6161 131.749 94.9321C131.696 95.248 131.604 95.564 131.485 95.8668C131.379 96.1696 131.233 96.4592 131.061 96.7488H133.6ZM137.237 96.8015C137.277 96.8146 137.329 96.8146 137.409 96.8278C137.488 96.8278 137.568 96.841 137.66 96.841C137.766 96.841 137.858 96.8541 137.964 96.8541C138.07 96.8541 138.176 96.8541 138.268 96.8541C138.467 96.8541 138.652 96.841 138.837 96.8146C139.022 96.7883 139.168 96.7356 139.3 96.6698C139.445 96.604 139.551 96.5118 139.617 96.4065C139.697 96.288 139.736 96.1432 139.736 95.9721C139.736 95.8009 139.71 95.6561 139.63 95.5508C139.564 95.4323 139.459 95.3533 139.34 95.2743C139.22 95.2085 139.075 95.169 138.903 95.1427C138.744 95.1032 138.559 95.09 138.374 95.09H137.237V96.8015ZM138.242 94.3923C138.427 94.3923 138.599 94.3791 138.758 94.3528C138.903 94.3396 139.035 94.287 139.154 94.2343C139.26 94.1685 139.353 94.0895 139.419 93.9842C139.485 93.8789 139.511 93.7604 139.511 93.6024C139.511 93.4313 139.472 93.3128 139.392 93.2075C139.313 93.1153 139.207 93.0495 139.075 92.9968C138.943 92.9442 138.784 92.9047 138.625 92.8915C138.454 92.8783 138.282 92.8652 138.11 92.8652C137.951 92.8652 137.792 92.8652 137.634 92.8783C137.475 92.8783 137.343 92.8915 137.237 92.8915V94.3923H138.242ZM138.229 97.6177C137.819 97.6177 137.448 97.5914 137.118 97.5519C136.774 97.5124 136.496 97.4729 136.298 97.4334V92.2727C136.496 92.2333 136.774 92.1806 137.118 92.1411C137.448 92.1148 137.819 92.0884 138.229 92.0884C138.506 92.0884 138.784 92.1148 139.049 92.1674C139.313 92.2069 139.551 92.2859 139.749 92.4044C139.961 92.5097 140.12 92.6677 140.252 92.8652C140.371 93.0495 140.437 93.2864 140.437 93.5761C140.437 93.8394 140.371 94.0632 140.239 94.2343C140.106 94.4186 139.935 94.5634 139.723 94.6688C140.014 94.7741 140.252 94.9189 140.424 95.1164C140.596 95.327 140.688 95.6035 140.688 95.9589C140.688 96.2749 140.622 96.5513 140.49 96.762C140.371 96.9726 140.199 97.1306 139.974 97.2622C139.749 97.3939 139.485 97.486 139.194 97.5387C138.89 97.5914 138.573 97.6177 138.229 97.6177ZM146.375 92.2201V97.5255H145.462V93.4839C145.251 93.7472 145.026 94.05 144.788 94.3923C144.536 94.7346 144.298 95.1032 144.047 95.4718C143.796 95.8404 143.571 96.2091 143.346 96.5645C143.122 96.92 142.923 97.2359 142.764 97.5255H141.905V92.2201H142.831V96.0379C143.003 95.7351 143.214 95.4192 143.439 95.0769C143.664 94.7214 143.889 94.3791 144.14 94.0368C144.378 93.6946 144.616 93.3654 144.867 93.0495C145.105 92.7335 145.33 92.4571 145.541 92.2201H146.375ZM154.573 92.2201C154.441 92.3912 154.282 92.5755 154.111 92.773C153.939 92.9837 153.767 93.1811 153.582 93.4049C153.396 93.6156 153.211 93.8262 153.026 94.0368C152.841 94.2475 152.656 94.445 152.484 94.6424C152.696 94.8399 152.907 95.0505 153.119 95.2743C153.344 95.5113 153.555 95.7483 153.767 95.9984C153.965 96.2485 154.163 96.4987 154.362 96.762C154.547 97.0253 154.719 97.2754 154.864 97.5255H153.793C153.661 97.3017 153.489 97.0648 153.304 96.8146C153.119 96.5645 152.92 96.3275 152.722 96.0906C152.524 95.8668 152.312 95.643 152.114 95.4455C151.915 95.248 151.73 95.0769 151.558 94.9584V97.5255H150.646V94.9584C150.474 95.0769 150.289 95.248 150.09 95.4455C149.892 95.643 149.681 95.8668 149.482 96.0906C149.284 96.3275 149.085 96.5645 148.9 96.8146C148.715 97.0648 148.543 97.3017 148.411 97.5255H147.353C147.499 97.2754 147.657 97.0253 147.842 96.762C148.041 96.5118 148.239 96.2485 148.438 96.0116C148.649 95.7614 148.861 95.5245 149.085 95.2875C149.297 95.0637 149.509 94.8399 149.72 94.6424C149.548 94.4581 149.363 94.2606 149.178 94.05C148.993 93.8394 148.808 93.6287 148.623 93.4049C148.438 93.1943 148.266 92.9837 148.094 92.7862C147.922 92.5887 147.763 92.4044 147.618 92.2201H148.676C148.914 92.5229 149.204 92.8652 149.522 93.247C149.839 93.6156 150.223 94.05 150.646 94.5371V92.2201H151.558V94.5371C151.981 94.05 152.365 93.6156 152.682 93.247C153 92.8652 153.291 92.5229 153.529 92.2201H154.573ZM160.299 92.2201V97.5255H159.374V93.4839C159.162 93.7472 158.937 94.05 158.699 94.3923C158.448 94.7346 158.21 95.1032 157.959 95.4718C157.721 95.8404 157.483 96.2091 157.258 96.5645C157.033 96.92 156.835 97.2359 156.676 97.5255H155.83V92.2201H156.742V96.0379C156.927 95.7351 157.126 95.4192 157.35 95.0769C157.575 94.7214 157.8 94.3791 158.051 94.0368C158.289 93.6946 158.527 93.3654 158.779 93.0495C159.017 92.7335 159.241 92.4571 159.453 92.2201H160.299ZM162.944 93.6156C162.878 94.287 162.825 94.9584 162.785 95.6298C162.759 96.3012 162.732 96.9331 162.706 97.5255H161.794C161.807 97.1043 161.833 96.6698 161.86 96.2222C161.886 95.7746 161.913 95.3138 161.952 94.8531C161.979 94.3923 162.018 93.9447 162.058 93.4971C162.111 93.0626 162.151 92.6282 162.19 92.2201H163.063C163.288 92.5755 163.539 93.0626 163.83 93.6814C164.121 94.287 164.465 94.9979 164.848 95.8009C165.232 94.9979 165.562 94.287 165.853 93.6814C166.157 93.0626 166.409 92.5755 166.62 92.2201H167.506C167.559 92.6282 167.599 93.0626 167.639 93.4971C167.678 93.9447 167.718 94.3923 167.758 94.8531C167.784 95.3138 167.81 95.7746 167.85 96.2222C167.877 96.6698 167.89 97.1043 167.903 97.5255H166.964C166.938 96.9331 166.911 96.3012 166.885 95.6298C166.845 94.9584 166.792 94.287 166.726 93.6156C166.62 93.8262 166.488 94.0763 166.356 94.3791C166.21 94.6688 166.065 94.9716 165.919 95.2743C165.787 95.5903 165.655 95.8799 165.536 96.1564C165.404 96.4329 165.311 96.6567 165.245 96.8146H164.452C164.372 96.6435 164.266 96.4197 164.147 96.1432C164.015 95.8668 163.883 95.5771 163.751 95.2612C163.605 94.9584 163.46 94.6556 163.328 94.3528C163.182 94.0632 163.05 93.813 162.944 93.6156ZM174.105 94.8662C174.105 95.2875 174.039 95.6693 173.92 96.0116C173.801 96.3539 173.629 96.6435 173.404 96.8936C173.179 97.1306 172.915 97.3149 172.611 97.4597C172.307 97.5914 171.976 97.6572 171.606 97.6572C171.249 97.6572 170.918 97.5914 170.601 97.4597C170.296 97.3149 170.032 97.1306 169.807 96.8936C169.596 96.6435 169.424 96.3539 169.291 96.0116C169.172 95.6693 169.106 95.2875 169.106 94.8662C169.106 94.4581 169.172 94.0763 169.291 93.7341C169.424 93.3918 169.596 93.1021 169.807 92.852C170.032 92.615 170.296 92.4176 170.601 92.2859C170.918 92.1543 171.249 92.0884 171.606 92.0884C171.976 92.0884 172.307 92.1543 172.611 92.2859C172.915 92.4176 173.179 92.615 173.404 92.852C173.629 93.1021 173.801 93.3918 173.92 93.7341C174.039 94.0763 174.105 94.4581 174.105 94.8662ZM173.113 94.8662C173.113 94.2738 172.981 93.7999 172.703 93.4576C172.439 93.1021 172.068 92.931 171.606 92.931C171.143 92.931 170.773 93.1021 170.508 93.4576C170.244 93.7999 170.098 94.2738 170.098 94.8662C170.098 95.4718 170.244 95.9458 170.508 96.288C170.773 96.6435 171.143 96.8146 171.606 96.8146C172.068 96.8146 172.439 96.6435 172.703 96.288C172.981 95.9458 173.113 95.4718 173.113 94.8662ZM177.755 97.644C177.332 97.644 176.948 97.5782 176.631 97.4334C176.3 97.3017 176.036 97.1174 175.811 96.8673C175.586 96.6172 175.427 96.3275 175.308 95.9984C175.203 95.6561 175.15 95.2875 175.15 94.8794C175.15 94.4713 175.203 94.1027 175.322 93.7604C175.441 93.4181 175.612 93.1285 175.837 92.8783C176.049 92.6282 176.313 92.4439 176.631 92.2991C176.948 92.1674 177.305 92.0884 177.702 92.0884C177.94 92.0884 178.178 92.1148 178.416 92.1543C178.654 92.1938 178.879 92.2596 179.104 92.3517L178.879 93.1548C178.733 93.089 178.575 93.0231 178.389 92.9837C178.204 92.9442 177.993 92.931 177.781 92.931C177.252 92.931 176.842 93.089 176.565 93.4313C176.287 93.7604 176.141 94.2475 176.141 94.8794C176.141 95.169 176.168 95.4323 176.234 95.6693C176.3 95.9063 176.406 96.1037 176.538 96.2749C176.684 96.446 176.869 96.5777 177.08 96.6698C177.305 96.762 177.57 96.8015 177.874 96.8015C178.138 96.8015 178.363 96.7883 178.561 96.7356C178.773 96.683 178.932 96.6435 179.051 96.5777L179.183 97.3807C179.13 97.4071 179.051 97.4466 178.945 97.4729C178.839 97.4992 178.72 97.5255 178.601 97.5519C178.469 97.5782 178.323 97.6045 178.178 97.6177C178.032 97.6309 177.887 97.644 177.755 97.644ZM184.115 92.2201V93.0231H182.383V97.5255H181.431V93.0231H179.699V92.2201H184.115ZM189.564 92.2201V97.5255H188.638V93.4839C188.44 93.7472 188.215 94.05 187.964 94.3923C187.726 94.7346 187.474 95.1032 187.236 95.4718C186.985 95.8404 186.747 96.2091 186.522 96.5645C186.297 96.92 186.099 97.2359 185.94 97.5255H185.094V92.2201H186.006V96.0379C186.192 95.7351 186.39 95.4192 186.615 95.0769C186.84 94.7214 187.078 94.3791 187.316 94.0368C187.554 93.6946 187.805 93.3654 188.043 93.0495C188.281 92.7335 188.519 92.4571 188.731 92.2201H189.564Z" fill="white"/>
</g>
</svg>
