<svg width="41" height="60" viewBox="0 0 41 60" fill="none" xmlns="http://www.w3.org/2000/svg">
<path d="M39.3362 0H5.04315C2.12118 0 0 2.10305 0 5.00004V35C0 35.552 0.45187 36 1.00858 36C1.56529 36 2.01716 35.552 2.01716 35V5.00004C2.01716 3.20602 3.23354 2.00004 5.04303 2.00004H38.3275V48C38.3275 49.112 37.9331 50.517 36.868 51.1061L24.7646 57.1061C24.6718 57.1511 24.587 57.2111 24.5134 57.2821C24.5063 57.2891 23.6984 58.0001 22.1895 58.0001C20.6766 58.0001 19.8879 57.3021 19.8656 57.2821C19.792 57.2111 19.7072 57.1511 19.6145 57.1061L7.53949 51.12C6.30999 50.462 6.05173 49.06 6.05173 48V5.00004C6.05173 4.44809 5.59986 4.00008 5.04315 4.00008C4.48644 4.00008 4.03457 4.44809 4.03457 5.00004V48C4.03457 50.268 4.93925 52.001 6.60962 52.895L18.5981 58.837C18.9985 59.167 20.2098 60 22.1898 60C24.1707 60 25.3811 59.167 25.7814 58.837L37.8082 52.8741C39.6791 51.8441 40.3448 49.6811 40.3448 48.0001V0.999961C40.3449 0.448008 39.894 0 39.3362 0Z" fill="white"/>
<path d="M10.0862 46C10.0862 46.392 10.3171 46.748 10.6772 46.91L21.772 51.91C21.9051 51.97 22.0474 52 22.1896 52C22.3318 52 22.474 51.97 22.6072 51.91L33.7021 46.91C34.0621 46.748 34.2932 46.392 34.2932 46V41C34.2932 40.66 34.1188 40.343 33.8302 40.1589C33.5428 39.9758 33.1807 39.95 32.867 40.0899L22.1898 44.9009L11.5125 40.0899C11.2018 39.9498 10.8387 39.9758 10.5493 40.1589C10.2609 40.3429 10.0863 40.6599 10.0863 41V46H10.0862ZM12.1033 42.553L21.772 46.9101C22.0373 47.0301 22.3419 47.0301 22.6072 46.9101L32.2759 42.553V45.356L22.1898 49.901L12.1036 45.356V42.553H12.1033Z" fill="white"/>
<path d="M10.0862 34C10.0862 34.392 10.3171 34.748 10.6772 34.91L21.772 39.91C21.9051 39.97 22.0474 40 22.1896 40C22.3318 40 22.474 39.97 22.6072 39.91L33.7021 34.91C34.0621 34.748 34.2932 34.392 34.2932 34V29C34.2932 28.66 34.1188 28.343 33.8302 28.1589C33.5428 27.9759 33.1807 27.95 32.867 28.0899L22.1898 32.9009L11.5125 28.0899C11.2018 27.9498 10.8387 27.9759 10.5493 28.1589C10.2609 28.3429 10.0863 28.6599 10.0863 29V34H10.0862ZM12.1033 30.553L21.772 34.9101C22.0373 35.0301 22.3419 35.0301 22.6072 34.9101L32.2759 30.553V33.356L22.1898 37.901L12.1036 33.356V30.553H12.1033Z" fill="white"/>
<path d="M10.6771 22.91L21.7719 27.9101C21.905 27.9701 22.0473 28.0001 22.1895 28.0001C22.3317 28.0001 22.4739 27.9701 22.6071 27.9101L33.702 22.91C34.062 22.7481 34.2931 22.3921 34.2931 22.0001V17C34.2931 16.6601 34.1186 16.3431 33.8301 16.159C33.5427 15.975 33.1806 15.949 32.8669 16.09L22.1896 20.901L11.5124 16.09C11.2017 15.9499 10.8386 15.9759 10.5492 16.159C10.2608 16.343 10.0862 16.66 10.0862 17V22.0001C10.0861 22.3919 10.317 22.748 10.6771 22.91ZM12.1032 18.553L21.7719 22.91C22.0372 23.03 22.3418 23.03 22.6071 22.91L32.2758 18.553V21.356L22.1896 25.901L12.1035 21.356V18.553H12.1032Z" fill="white"/>
</svg>
